<svg width="120" height="120" viewBox="0 0 120 120" fill="none" xmlns="http://www.w3.org/2000/svg">
<circle cx="60" cy="60" r="60" fill="#0F0823"/>
<mask id="mask0_2_35" style="mask-type:luminance" maskUnits="userSpaceOnUse" x="32" y="25" width="57" height="70">
<path d="M88.588 25H32V94.165H88.588V25Z" fill="white"/>
</mask>
<g mask="url(#mask0_2_35)">
<path d="M86.0161 25V44.115H54.0361C53.6501 44.1107 53.267 44.1828 52.9089 44.3274C52.5509 44.4719 52.225 44.6859 51.9501 44.957C51.7265 45.1784 51.544 45.4377 51.4111 45.723C51.7085 40.8809 53.5433 36.2601 56.6486 32.5329C59.7538 28.8058 63.9674 26.1668 68.6761 25H86.0161Z" fill="url(#paint0_linear_2_35)"/>
<path d="M69.2604 73.209C68.9966 78.0754 67.1809 82.7293 64.0794 86.4887C60.978 90.248 56.754 92.9151 52.0264 94.099H35.4824V74.988H66.5444C66.9396 74.9932 67.3319 74.9183 67.6974 74.768C68.047 74.6254 68.3643 74.4139 68.6304 74.146C68.898 73.8765 69.1118 73.5585 69.2604 73.209Z" fill="url(#paint1_linear_2_35)"/>
<path d="M88.5882 72.0601C88.6019 75.0081 88.0132 77.9278 86.8582 80.6401C86.6232 81.1861 86.3652 81.7241 86.0852 82.2481C86.0772 82.2701 86.0692 82.2781 86.0692 82.2931C86.0666 82.3044 86.0614 82.315 86.0542 82.3241C83.6782 86.8158 79.8296 90.3537 75.1542 92.3441C72.4359 93.5161 69.5043 94.1126 66.5442 94.0961H52.0332L52.2002 94.0511C56.8884 92.8376 61.0687 90.1635 64.1358 86.4159C67.203 82.6683 68.9977 78.0417 69.2602 73.2061V73.1981C69.5376 72.4764 69.5429 71.6784 69.2752 70.9531C69.2682 70.9381 69.2602 70.9151 69.2522 70.9001C69.1079 70.5514 68.8966 70.2344 68.6302 69.9671C68.3573 69.6938 68.0316 69.4788 67.673 69.3353C67.3144 69.1917 66.9303 69.1226 66.5442 69.1321H54.0362C53.4142 69.1321 52.7922 69.1101 52.1772 69.0491C52.1552 69.0491 52.1322 69.0411 52.1022 69.0411C49.8046 68.8592 47.5534 68.2955 45.4412 67.3731C40.1856 65.1107 36.0006 60.9147 33.7522 55.6531C33.4561 54.9752 33.1977 54.2815 32.9782 53.5751C32.3219 51.4602 31.9921 49.2575 32.0002 47.0431C31.987 44.0884 32.5834 41.1628 33.7522 38.4491C36.0137 33.2036 40.1957 29.0216 45.4412 26.7601C46.9722 26.0898 48.58 25.6108 50.2282 25.3341C50.2892 25.3181 50.3342 25.3111 50.3642 25.3031C50.3793 25.2993 50.3947 25.2969 50.4102 25.2961C51.6084 25.0957 52.8213 24.9954 54.0362 24.9961H68.6762C63.9674 26.1629 59.7538 28.8019 56.6486 32.529C53.5434 36.2562 51.7086 40.877 51.4112 45.7191C51.3792 45.7753 51.3514 45.8338 51.3282 45.8941C51.1784 46.257 51.1036 46.6465 51.1082 47.0391C51.1039 47.4502 51.181 47.858 51.3352 48.2391C51.3513 48.2815 51.3717 48.322 51.3962 48.3601C51.5269 48.6639 51.715 48.9396 51.9502 49.1721C52.224 49.4447 52.5497 49.6596 52.908 49.8042C53.2663 49.9489 53.6499 50.0202 54.0362 50.0141H66.5442C69.498 49.9984 72.4241 50.5843 75.1442 51.7361C80.4329 53.9594 84.6399 58.1664 86.8632 63.4551C87.157 64.1406 87.413 64.8416 87.6302 65.5551C88.2726 67.6634 88.5955 69.8561 88.5882 72.0601Z" fill="url(#paint2_linear_2_35)"/>
<g style="mix-blend-mode:multiply" opacity="0.16">
<path d="M69.26 73.209C68.9962 78.0754 67.1805 82.7293 64.0791 86.4887C60.9777 90.248 56.7536 92.9151 52.0261 94.099H47.4141C51.2843 92.2777 54.7009 89.6182 57.4163 86.3134C60.1318 83.0085 62.078 79.141 63.114 74.991H66.5421C66.9373 74.9962 67.3295 74.9213 67.695 74.771C68.0447 74.6284 68.362 74.4169 68.6281 74.149C68.8967 73.8788 69.1112 73.5597 69.26 73.209Z" fill="black"/>
</g>
<g style="mix-blend-mode:multiply" opacity="0.16">
<path d="M72.8331 25C68.5621 28.178 59.8922 35.513 57.7072 44.115H54.0361C53.6501 44.1107 53.267 44.1828 52.9089 44.3274C52.5509 44.4719 52.225 44.6859 51.9501 44.957C51.7265 45.1784 51.544 45.4377 51.4111 45.723C51.7085 40.8809 53.5433 36.2601 56.6486 32.5329C59.7538 28.8058 63.9674 26.1668 68.6761 25H72.8331Z" fill="black"/>
</g>
<g style="mix-blend-mode:multiply" opacity="0.25">
<path d="M86.0166 30.719V44.119H59.3086C61.5306 43.899 63.7606 43.748 65.9836 43.641C68.2066 43.534 70.4366 43.441 72.6586 43.406C74.8886 43.338 77.1116 43.346 79.3416 43.323C81.3416 43.346 83.3236 43.346 85.3196 43.391C85.3416 42.519 85.3576 41.646 85.3946 40.767C85.4326 39.651 85.4706 38.536 85.5396 37.421C85.6496 35.187 85.7966 32.949 86.0166 30.719Z" fill="black"/>
</g>
<g style="mix-blend-mode:screen" opacity="0.7">
<path d="M88.5881 72.0602C88.6018 75.0081 88.0131 77.9278 86.8581 80.6402C86.6231 81.1862 86.3651 81.7242 86.0851 82.2482C86.1611 82.0432 86.4111 81.3901 86.7851 80.3891C87.3644 78.6869 87.7436 76.9231 87.9151 75.1332C88.0231 73.9477 88.0462 72.7559 87.9841 71.5671C87.908 70.2525 87.7254 68.9462 87.4381 67.6612C87.2893 66.9966 87.1044 66.3406 86.8841 65.6962C86.6261 65.0292 86.3681 64.3531 86.1101 63.6781C85.5312 62.3508 84.8195 61.0854 83.9861 59.9012C83.1742 58.7012 82.2354 57.5921 81.1861 56.5931C80.1753 55.6236 79.0785 54.748 77.9091 53.9771C76.7999 53.2568 75.6357 52.6252 74.4271 52.0882C73.3385 51.6197 72.2151 51.2366 71.0671 50.9421C69.3196 50.5088 67.5329 50.2522 65.7341 50.1762C64.4141 50.0762 63.6631 50.0172 63.6631 50.0172H66.5381C69.4919 50.0014 72.418 50.5873 75.1381 51.7392C80.4268 53.9625 84.6338 58.1695 86.8571 63.4581C87.1509 64.1436 87.4069 64.8447 87.6241 65.5582C88.2682 67.6652 88.5931 69.8568 88.5881 72.0602Z" fill="white"/>
</g>
<g style="mix-blend-mode:multiply" opacity="0.25">
<path d="M49.6364 94.096H35.4824V79.646C35.6564 80.852 35.7624 82.046 35.8764 83.257C35.9674 84.463 36.0514 85.669 36.1044 86.867C36.1804 88.073 36.1954 89.28 36.2404 90.486L36.2714 93.307C37.1884 93.322 38.1064 93.322 39.0244 93.345C40.2004 93.391 41.3764 93.406 42.5594 93.482C44.9184 93.596 47.2774 93.77 49.6364 94.096Z" fill="black"/>
</g>
<g style="mix-blend-mode:screen" opacity="0.7">
<path d="M52.1022 69.041C49.8046 68.8591 47.5534 68.2953 45.4412 67.373C40.1856 65.1106 36.0006 60.9146 33.7522 55.653C33.4561 54.9751 33.1977 54.2814 32.9782 53.575C32.3219 51.4601 31.9921 49.2574 32.0002 47.043C31.987 44.0883 32.5834 41.1627 33.7522 38.449C36.0137 33.2035 40.1957 29.0215 45.4412 26.76C46.9722 26.0897 48.58 25.6107 50.2282 25.334C49.4014 25.5328 48.5859 25.7758 47.7852 26.062C42.3533 28.002 37.8591 31.9298 35.2092 37.053C33.4568 40.4172 32.6319 44.1874 32.8192 47.976C32.878 49.8797 33.2076 51.7653 33.7982 53.576C33.9722 54.038 34.1392 54.501 34.3062 54.956L34.4272 55.297L34.4582 55.381C34.4652 55.3952 34.4702 55.4104 34.4732 55.426L34.5492 55.593L34.8372 56.238C35.2203 57.0729 35.6586 57.8814 36.1492 58.658C37.0793 60.1366 38.1765 61.5033 39.4192 62.731C40.5471 63.8299 41.7819 64.8134 43.1052 65.667C44.2349 66.3838 45.4196 67.0101 46.6482 67.54C47.6069 67.9477 48.5959 68.28 49.6062 68.534C50.4291 68.7449 51.2622 68.9141 52.1022 69.041Z" fill="white"/>
</g>
<g style="mix-blend-mode:screen" opacity="0.7">
<path d="M68.6761 25C63.9674 26.1668 59.7538 28.8058 56.6486 32.5329C53.5433 36.2601 51.7085 40.8809 51.4111 45.723C51.3791 45.7792 51.3513 45.8377 51.3281 45.898L51.3891 45.708C51.3661 45.108 51.3661 44.502 51.3661 43.895C51.4111 43.289 51.4791 42.682 51.5401 42.067C51.6401 41.467 51.7751 40.867 51.8891 40.267C52.0411 39.667 52.2461 39.091 52.4201 38.492C52.6201 37.908 52.8681 37.346 53.1101 36.77C53.3681 36.209 53.6721 35.67 53.9451 35.116C54.2631 34.578 54.6121 34.07 54.9451 33.539C55.3091 33.039 55.6881 32.545 56.0681 32.059C56.4771 31.589 56.9101 31.142 57.3271 30.686C57.7821 30.262 58.2271 29.837 58.7001 29.427L60.1791 28.297C60.6951 27.956 61.2181 27.637 61.7491 27.311C62.3031 27.038 62.8421 26.742 63.3951 26.476L65.1101 25.809C65.7101 25.634 66.2931 25.46 66.8851 25.309C67.4771 25.189 68.0771 25.091 68.6761 25Z" fill="white"/>
</g>
<g style="mix-blend-mode:screen" opacity="0.7">
<path d="M69.3974 73.1981C69.4044 73.8201 69.4044 74.4271 69.3894 75.0411C69.3514 75.6561 69.2754 76.2631 69.2074 76.8771C69.1014 77.4838 68.9801 78.0908 68.8434 78.6981C68.6914 79.2981 68.4944 79.8891 68.3194 80.4801C68.1194 81.0721 67.8574 81.6331 67.6194 82.2101C67.3624 82.7791 67.0664 83.3251 66.7774 83.8791C66.4664 84.4171 66.1184 84.9331 65.7844 85.4641C65.4204 85.9721 65.0404 86.4641 64.6614 86.9581C64.2524 87.4291 63.8194 87.8841 63.4024 88.3461C62.9474 88.7791 62.5024 89.2041 62.0294 89.6211L60.5494 90.7591C60.0334 91.1004 59.5101 91.4337 58.9794 91.7591L57.3334 92.6161L55.6114 93.3061L53.8434 93.8221C53.3884 93.9131 52.9434 94.0041 52.4934 94.0801L52.5934 94.0951L52.0694 94.1561C52.0624 94.1641 52.0464 94.1641 52.0394 94.1641L52.0314 94.0951L52.0244 94.0271L52.1984 94.0501C56.8866 92.8366 61.0669 90.1625 64.1341 86.4148C67.2012 82.6672 68.9959 78.0407 69.2584 73.2051V73.1971C69.4056 72.8361 69.4778 72.4489 69.4704 72.0591C69.5254 72.4397 69.5005 72.8276 69.3974 73.1981Z" fill="white"/>
</g>
</g>
<defs>
<linearGradient id="paint0_linear_2_35" x1="86.0161" y1="35.3615" x2="52.8299" y2="35.3615" gradientUnits="userSpaceOnUse">
<stop stop-color="#1ABC9C"/>
<stop offset="1" stop-color="#00BF96"/>
</linearGradient>
<linearGradient id="paint1_linear_2_35" x1="34.1651" y1="83.654" x2="66.0515" y2="83.654" gradientUnits="userSpaceOnUse">
<stop stop-color="#1ABC9C"/>
<stop offset="1" stop-color="#00BF96"/>
</linearGradient>
<linearGradient id="paint2_linear_2_35" x1="60.2942" y1="24.4433" x2="60.2942" y2="95.9621" gradientUnits="userSpaceOnUse">
<stop stop-color="#1ABC9C"/>
<stop offset="1" stop-color="#00BF96"/>
</linearGradient>
</defs>
</svg>
